# xmcd CD database file
#
# Track frame offsets:
#	182
#	15467
#	26937
#	36870
#	49160
#	60360
#	72432
#	83302
#	95365
#	107787
#	120975
#	133590
#	144002
#	155630
#	167595
#	184310
#	194130
#	205080
#	217700
#	227402
#	238900
#	254747
#	265497
#	276870
#	289762
#	300977
#	312677
#	325885
#
# Disc length: 4480 seconds
#
# Revision: 3
# Processed by: cddbd v1.4PL0 Copyright (c) Steve Scherf et al.
# Submitted via: CDex 1.50Beta7
#
DISCID=93117e1c
DTITLE=John Lee Hooker - Boogie Chillum
DYEAR=1900
DGENRE=Blues
TTITLE0=Tupelo
TTITLE1=Boogie Chillum
TTITLE2=Dimples
TTITLE3=Drug Store Woman
TTITLE4=Boom Boom
TTITLE5=Frisco Blues
TTITLE6=No Shoe
TTITLE7=I'm In The Mood
TTITLE8=Hobo Blues
TTITLE9=Baby Lee
TTITLE10=Trouble Blues
TTITLE11=Old Time Shimmy
TTITLE12=Little Wheel
TTITLE13=Whiskey And Wimmen
TTITLE14=Process
TTITLE15=Dusty Road
TTITLE16=Send Me Your Pillow
TTITLE17=I`m So Excited
TTITLE18=Onions
TTITLE19=Good Rockin` Mama
TTITLE20=Thelma
TTITLE21=Keep Your Hands To Yourself
TTITLE22=What Do You Say
TTITLE23=Lost A Good Girl
TTITLE24=Let`s Make It
TTITLE25=Hard Hearted Woman
TTITLE26=I`m Going Upstairs
TTITLE27=I`m Leaving
EXTD=
EXTT0=
EXTT1=
EXTT2=
EXTT3=
EXTT4=
EXTT5=
EXTT6=
EXTT7=
EXTT8=
EXTT9=
EXTT10=
EXTT11=
EXTT12=
EXTT13=
EXTT14=
EXTT15=
EXTT16=
EXTT17=
EXTT18=
EXTT19=
EXTT20=
EXTT21=
EXTT22=
EXTT23=
EXTT24=
EXTT25=
EXTT26=
EXTT27=
PLAYORDER=
